<svg id="Layer_1" data-name="Layer 1" xmlns="http://www.w3.org/2000/svg" viewBox="0 0 960 560"><title>Artboard 1</title><path d="M394.17,48.41a4.27,4.27,0,0,0,2.88-1.11c.72-.84,1-2,1-5.46V29.69h2.64V42.86c0,2.82-.45,4.65-1.74,6a6.7,6.7,0,0,1-4.5,1.65ZM401,25.61a1.55,1.55,0,0,1-1.65,1.62,1.58,1.58,0,0,1-1.62-1.62A1.62,1.62,0,0,1,399.39,24,1.56,1.56,0,0,1,401,25.61Z"/><path d="M417.15,40.25c0,1.5,0,2.82.12,4h-2.34l-.15-2.37h-.06a5.46,5.46,0,0,1-4.8,2.7c-2.28,0-5-1.26-5-6.36V29.69h2.64v8c0,2.76.84,4.62,3.24,4.62a3.82,3.82,0,0,0,3.48-2.4,3.86,3.86,0,0,0,.24-1.35V29.69h2.64Z"/><path d="M421.53,22.91h2.64v21.3h-2.64Z"/><path d="M431.55,25.61a1.64,1.64,0,0,1-3.27,0A1.61,1.61,0,0,1,429.93,24,1.57,1.57,0,0,1,431.55,25.61Zm-2.94,18.6V29.69h2.64V44.21Z"/><path d="M448.77,36.83c0,5.37-3.72,7.71-7.23,7.71-3.93,0-7-2.88-7-7.47,0-4.86,3.18-7.71,7.2-7.71S448.77,32.39,448.77,36.83ZM437.25,37c0,3.18,1.83,5.58,4.41,5.58s4.41-2.37,4.41-5.64c0-2.46-1.23-5.58-4.35-5.58S437.25,34.22,437.25,37Z"/><path d="M468.81,43.67a9.73,9.73,0,0,1-4.17.84c-4.38,0-7.23-3-7.23-7.41a7.38,7.38,0,0,1,7.8-7.71,8.83,8.83,0,0,1,3.66.75l-.6,2a6.12,6.12,0,0,0-3.06-.69c-3.33,0-5.13,2.46-5.13,5.49,0,3.36,2.16,5.43,5,5.43a7.5,7.5,0,0,0,3.24-.72Z"/><path d="M479.94,44.21l-.21-1.83h-.09a5.41,5.41,0,0,1-4.44,2.16,4.14,4.14,0,0,1-4.44-4.17c0-3.51,3.12-5.43,8.73-5.4v-.3c0-1.2-.33-3.36-3.3-3.36a7.23,7.23,0,0,0-3.78,1.08l-.6-1.74a9,9,0,0,1,4.77-1.29c4.44,0,5.52,3,5.52,5.94v5.43a20.47,20.47,0,0,0,.24,3.48Zm-.39-7.41c-2.88-.06-6.15.45-6.15,3.27a2.34,2.34,0,0,0,2.49,2.52,3.61,3.61,0,0,0,3.51-2.43,2.75,2.75,0,0,0,.15-.84Z"/><path d="M486.36,22.91H489v21.3h-2.64Z"/><path d="M506,22.91V40.46c0,1.29,0,2.76.12,3.75h-2.37l-.12-2.52h-.06a5.37,5.37,0,0,1-4.95,2.85c-3.51,0-6.21-3-6.21-7.38,0-4.83,3-7.8,6.51-7.8a4.86,4.86,0,0,1,4.38,2.22h.06V22.91ZM503.34,35.6a4.67,4.67,0,0,0-.12-1.11,3.88,3.88,0,0,0-3.81-3.06c-2.73,0-4.35,2.4-4.35,5.61,0,2.94,1.44,5.37,4.29,5.37a4,4,0,0,0,3.87-3.15,4.59,4.59,0,0,0,.12-1.14Z"/><path d="M511.83,37.43c.06,3.57,2.34,5,5,5a9.55,9.55,0,0,0,4-.75l.45,1.89a11.77,11.77,0,0,1-4.83.9c-4.47,0-7.14-2.94-7.14-7.32s2.58-7.83,6.81-7.83c4.74,0,6,4.17,6,6.84a10.11,10.11,0,0,1-.09,1.23Zm7.74-1.89c0-1.68-.69-4.29-3.66-4.29-2.67,0-3.84,2.46-4,4.29Z"/><path d="M525.39,34.22c0-1.71,0-3.18-.12-4.53h2.31l.09,2.85h.12a4.36,4.36,0,0,1,4-3.18,2.85,2.85,0,0,1,.75.09v2.49a4,4,0,0,0-.9-.09c-1.86,0-3.18,1.41-3.54,3.39a7.37,7.37,0,0,0-.12,1.23v7.74h-2.61Z"/><path d="M548,36.83c0,5.37-3.72,7.71-7.23,7.71-3.93,0-7-2.88-7-7.47,0-4.86,3.18-7.71,7.2-7.71C545.22,29.36,548,32.39,548,36.83ZM536.52,37c0,3.18,1.83,5.58,4.41,5.58s4.41-2.37,4.41-5.64c0-2.46-1.23-5.58-4.35-5.58S536.52,34.22,536.52,37Zm8.37-13.56-3.66,4.29h-1.89L542,23.42Z"/><path d="M551.37,33.62c0-1.5,0-2.73-.12-3.93h2.34l.15,2.4h.06a5.34,5.34,0,0,1,4.8-2.73c2,0,5.13,1.2,5.13,6.18v8.67h-2.64V35.84c0-2.34-.87-4.29-3.36-4.29a3.75,3.75,0,0,0-3.54,2.7,3.79,3.79,0,0,0-.18,1.23v8.73h-2.64Z"/><rect x="177" y="64.79" width="616.01" height="1"/><path d="M180.08,82.09a1,1,0,0,1-2,0,1,1,0,0,1,1-1A.94.94,0,0,1,180.08,82.09Zm-1.76,11.16V84.54h1.58v8.71Z"/><path d="M182.53,86.9c0-.9,0-1.64-.07-2.36h1.4L184,86h0a3.2,3.2,0,0,1,2.88-1.64c1.21,0,3.08.72,3.08,3.71v5.2h-1.58v-5c0-1.4-.52-2.58-2-2.58a2.25,2.25,0,0,0-2.12,1.62,2.28,2.28,0,0,0-.11.74v5.24h-1.58Z"/><path d="M194.36,82v2.5h2.27v1.21h-2.27v4.7c0,1.08.31,1.69,1.19,1.69a3.49,3.49,0,0,0,.92-.11l.07,1.19a3.88,3.88,0,0,1-1.4.22,2.19,2.19,0,0,1-1.71-.67,3.23,3.23,0,0,1-.61-2.27V85.75h-1.35V84.54h1.35V82.45Z"/><path d="M198.41,87.26c0-1,0-1.91-.07-2.72h1.39l.05,1.71h.07a2.61,2.61,0,0,1,2.41-1.91,1.71,1.71,0,0,1,.45.05v1.49a2.38,2.38,0,0,0-.54-.05,2.22,2.22,0,0,0-2.12,2,4.51,4.51,0,0,0-.07.74v4.65h-1.57Z"/><path d="M212,88.83a4.26,4.26,0,0,1-4.34,4.63A4.14,4.14,0,0,1,203.48,89c0-2.92,1.91-4.63,4.32-4.63S212,86.16,212,88.83Zm-6.91.09c0,1.91,1.1,3.35,2.65,3.35s2.65-1.42,2.65-3.38c0-1.48-.74-3.35-2.61-3.35S205.08,87.26,205.08,88.92Z"/><path d="M305.4,84.54l1.24,1.87c.32.49.59.94.88,1.42h.05c.29-.52.58-1,.86-1.44l1.22-1.85h1.71l-3,4.21,3.06,4.5h-1.8l-1.28-2c-.34-.5-.63-1-.94-1.51h0c-.29.52-.59,1-.92,1.51l-1.26,2h-1.75l3.1-4.45-3-4.27Z"/><path d="M313,86.9c0-.9,0-1.64-.07-2.36h1.39l.07,1.4h.05a3,3,0,0,1,2.74-1.6,2.58,2.58,0,0,1,2.47,1.75h0a3.6,3.6,0,0,1,1-1.13,3,3,0,0,1,1.93-.61c1.15,0,2.86.76,2.86,3.78v5.13h-1.55V88.32c0-1.67-.61-2.68-1.89-2.68a2.05,2.05,0,0,0-1.87,1.44,2.61,2.61,0,0,0-.13.79v5.38h-1.55V88c0-1.39-.61-2.39-1.82-2.39a2.17,2.17,0,0,0-2,1.58,2.19,2.19,0,0,0-.13.77v5.26H313Z"/><path d="M328,80.47h1.58V93.26H328Z"/><path d="M422.92,80.47h1.58v5.44h0a3,3,0,0,1,1.13-1.12,3.27,3.27,0,0,1,1.62-.45c1.17,0,3,.72,3,3.73v5.19h-1.58v-5c0-1.4-.52-2.59-2-2.59a2.28,2.28,0,0,0-2.12,1.58,1.92,1.92,0,0,0-.11.76v5.26h-1.58Z"/><path d="M434.74,82v2.5H437v1.21h-2.27v4.7c0,1.08.31,1.69,1.19,1.69a3.5,3.5,0,0,0,.92-.11l.07,1.19a3.88,3.88,0,0,1-1.4.22,2.19,2.19,0,0,1-1.71-.67,3.23,3.23,0,0,1-.61-2.27V85.75h-1.35V84.54h1.35V82.45Z"/><path d="M438.79,86.9c0-.9,0-1.64-.07-2.36h1.39l.07,1.4h.05a3,3,0,0,1,2.74-1.6,2.58,2.58,0,0,1,2.47,1.75h0a3.6,3.6,0,0,1,1-1.13,3,3,0,0,1,1.93-.61c1.15,0,2.86.76,2.86,3.78v5.13h-1.55V88.32c0-1.67-.61-2.68-1.89-2.68a2.05,2.05,0,0,0-1.87,1.44,2.61,2.61,0,0,0-.13.79v5.38h-1.55V88c0-1.39-.61-2.39-1.82-2.39a2.17,2.17,0,0,0-2,1.58,2.19,2.19,0,0,0-.13.77v5.26h-1.55Z"/><path d="M453.8,80.47h1.58V93.26H453.8Z"/><path d="M554.93,92.93a5.84,5.84,0,0,1-2.5.5A4.14,4.14,0,0,1,548.09,89a4.43,4.43,0,0,1,4.68-4.63,5.3,5.3,0,0,1,2.2.45L554.6,86a3.67,3.67,0,0,0-1.84-.41,3.29,3.29,0,0,0-.05,6.55,4.5,4.5,0,0,0,1.94-.43Z"/><path d="M556.56,91.64a4.15,4.15,0,0,0,2.09.63c1.15,0,1.69-.58,1.69-1.3s-.45-1.17-1.62-1.6c-1.57-.56-2.3-1.42-2.3-2.47,0-1.41,1.13-2.56,3-2.56a4.35,4.35,0,0,1,2.14.54l-.4,1.15a3.39,3.39,0,0,0-1.78-.5c-.94,0-1.46.54-1.46,1.19s.52,1,1.66,1.48c1.51.58,2.29,1.33,2.29,2.63,0,1.53-1.19,2.61-3.26,2.61a5,5,0,0,1-2.45-.59Z"/><path d="M563.69,91.64a4.15,4.15,0,0,0,2.09.63c1.15,0,1.69-.58,1.69-1.3s-.45-1.17-1.62-1.6c-1.57-.56-2.3-1.42-2.3-2.47,0-1.41,1.13-2.56,3-2.56a4.34,4.34,0,0,1,2.14.54L568.3,86a3.39,3.39,0,0,0-1.78-.5c-.94,0-1.46.54-1.46,1.19s.52,1,1.66,1.48c1.51.58,2.29,1.33,2.29,2.63,0,1.53-1.19,2.61-3.26,2.61a5,5,0,0,1-2.45-.59Z"/><path d="M659.58,95.78a2.56,2.56,0,0,0,1.73-.67c.43-.5.59-1.19.59-3.28V84.54h1.58v7.9c0,1.69-.27,2.79-1,3.58a4,4,0,0,1-2.7,1Zm4.09-13.68a.93.93,0,0,1-1,1,1,1,0,0,1-1-1,1,1,0,0,1,1-1A.94.94,0,0,1,663.66,82.09Z"/><path d="M665.86,91.64a4.15,4.15,0,0,0,2.09.63c1.15,0,1.69-.58,1.69-1.3s-.45-1.17-1.62-1.6c-1.57-.56-2.3-1.42-2.3-2.47,0-1.41,1.13-2.56,3-2.56a4.34,4.34,0,0,1,2.14.54l-.4,1.15a3.39,3.39,0,0,0-1.78-.5c-.94,0-1.46.54-1.46,1.19s.52,1,1.66,1.48c1.51.58,2.29,1.33,2.29,2.63,0,1.53-1.19,2.61-3.26,2.61a5,5,0,0,1-2.45-.59Z"/><path d="M763.87,87.39c0-1.12,0-2-.07-2.84h1.42l.07,1.5h0a3.43,3.43,0,0,1,3.1-1.69c2.11,0,3.69,1.78,3.69,4.43,0,3.13-1.91,4.68-4,4.68a3.06,3.06,0,0,1-2.68-1.37h0v4.74h-1.57Zm1.57,2.32a3.57,3.57,0,0,0,.07.65,2.45,2.45,0,0,0,2.38,1.85c1.67,0,2.65-1.37,2.65-3.37,0-1.75-.92-3.24-2.59-3.24a2.75,2.75,0,0,0-2.5,2.61Z"/><path d="M774.11,80.47h1.58v5.44h0a3,3,0,0,1,1.13-1.12,3.27,3.27,0,0,1,1.62-.45c1.17,0,3,.72,3,3.73v5.19h-1.58v-5c0-1.4-.52-2.59-2-2.59a2.28,2.28,0,0,0-2.12,1.58,1.92,1.92,0,0,0-.11.76v5.26h-1.58Z"/><path d="M784.1,87.39c0-1.12,0-2-.07-2.84h1.42l.07,1.5h0a3.43,3.43,0,0,1,3.1-1.69c2.11,0,3.69,1.78,3.69,4.43,0,3.13-1.91,4.68-4,4.68a3.06,3.06,0,0,1-2.68-1.37h0v4.74H784.1Zm1.57,2.32a3.57,3.57,0,0,0,.07.65,2.45,2.45,0,0,0,2.38,1.85c1.67,0,2.65-1.37,2.65-3.37,0-1.75-.92-3.24-2.59-3.24a2.75,2.75,0,0,0-2.5,2.61Z"/><path d="M176.55,465.31a1.42,1.42,0,0,0,1-.37c.24-.28.33-.66.33-1.82v-4h.88v4.39a2.65,2.65,0,0,1-.58,2,2.23,2.23,0,0,1-1.5.55Zm2.27-7.6a.52.52,0,0,1-.55.54.53.53,0,0,1-.54-.54.54.54,0,0,1,.56-.55A.52.52,0,0,1,178.82,457.72Z"/><path d="M184.21,462.59c0,.5,0,.94,0,1.32h-.78l0-.79h0a1.82,1.82,0,0,1-1.6.9c-.76,0-1.67-.42-1.67-2.12v-2.83H181v2.68c0,.92.28,1.54,1.08,1.54a1.27,1.27,0,0,0,1.16-.8,1.29,1.29,0,0,0,.08-.45v-3h.88Z"/><path d="M185.67,456.82h.88v7.1h-.88Z"/><path d="M189,457.72a.54.54,0,0,1-1.09,0,.54.54,0,0,1,.55-.55A.52.52,0,0,1,189,457.72Zm-1,6.2v-4.84h.88v4.84Z"/><path d="M194.75,461.46a2.37,2.37,0,0,1-2.41,2.57,2.3,2.3,0,0,1-2.32-2.49,2.36,2.36,0,0,1,2.4-2.57A2.29,2.29,0,0,1,194.75,461.46Zm-3.84.05c0,1.06.61,1.86,1.47,1.86s1.47-.79,1.47-1.88c0-.82-.41-1.86-1.45-1.86S190.91,460.59,190.91,461.51Z"/><path d="M199.31,463.73a3.24,3.24,0,0,1-1.39.28,2.3,2.3,0,0,1-2.41-2.47,2.46,2.46,0,0,1,2.6-2.57,2.94,2.94,0,0,1,1.22.25l-.2.68a2,2,0,0,0-1-.23,1.82,1.82,0,0,0,0,3.64,2.49,2.49,0,0,0,1.08-.24Z"/><path d="M203,463.91l-.07-.61h0a1.8,1.8,0,0,1-1.48.72,1.38,1.38,0,0,1-1.48-1.39c0-1.17,1-1.81,2.91-1.8v-.1a1,1,0,0,0-1.1-1.12,2.4,2.4,0,0,0-1.26.36l-.2-.58a3,3,0,0,1,1.59-.43c1.48,0,1.84,1,1.84,2v1.81a6.85,6.85,0,0,0,.08,1.16Zm-.13-2.47c-1,0-2,.15-2,1.09a.78.78,0,0,0,.83.84,1.2,1.2,0,0,0,1.17-.81.91.91,0,0,0,.05-.28Z"/><path d="M205.16,456.82H206v7.1h-.88Z"/><path d="M211.7,456.82v5.85c0,.43,0,.92,0,1.25H211l0-.84h0a1.79,1.79,0,0,1-1.65,1,2.21,2.21,0,0,1-2.07-2.46,2.31,2.31,0,0,1,2.17-2.6,1.62,1.62,0,0,1,1.46.74h0v-2.89Zm-.88,4.23a1.57,1.57,0,0,0,0-.37,1.29,1.29,0,0,0-1.27-1c-.91,0-1.45.8-1.45,1.87s.48,1.79,1.43,1.79a1.32,1.32,0,0,0,1.29-1,1.53,1.53,0,0,0,0-.38Z"/><path d="M213.65,461.66a1.55,1.55,0,0,0,1.66,1.68,3.19,3.19,0,0,0,1.34-.25l.15.63a3.91,3.91,0,0,1-1.61.3,2.25,2.25,0,0,1-2.38-2.44,2.35,2.35,0,0,1,2.27-2.61,2,2,0,0,1,2,2.28,3.37,3.37,0,0,1,0,.41Zm2.58-.63A1.25,1.25,0,0,0,215,459.6a1.46,1.46,0,0,0-1.35,1.43Z"/><path d="M218.17,460.59c0-.57,0-1.06,0-1.51h.77l0,.95h0a1.45,1.45,0,0,1,1.34-1.06.93.93,0,0,1,.25,0v.83a1.34,1.34,0,0,0-.3,0,1.23,1.23,0,0,0-1.18,1.13,2.47,2.47,0,0,0,0,.41v2.58h-.87Z"/><path d="M225.72,461.46a2.37,2.37,0,0,1-2.41,2.57,2.3,2.3,0,0,1-2.32-2.49,2.36,2.36,0,0,1,2.4-2.57A2.29,2.29,0,0,1,225.72,461.46Zm-3.84.05c0,1.06.61,1.86,1.47,1.86s1.47-.79,1.47-1.88c0-.82-.41-1.86-1.45-1.86S221.88,460.59,221.88,461.51Z"/><path d="M226.83,460.39c0-.5,0-.91,0-1.31h.78l0,.8h0a1.78,1.78,0,0,1,1.6-.91c.67,0,1.71.4,1.71,2.06v2.89h-.88v-2.79c0-.78-.29-1.43-1.12-1.43a1.25,1.25,0,0,0-1.18.9,1.27,1.27,0,0,0-.06.41v2.91h-.88Z"/><path d="M235.83,463.73a3.24,3.24,0,0,1-1.39.28,2.3,2.3,0,0,1-2.41-2.47,2.46,2.46,0,0,1,2.6-2.57,2.94,2.94,0,0,1,1.22.25l-.2.68a2,2,0,0,0-1-.23,1.82,1.82,0,0,0,0,3.64,2.49,2.49,0,0,0,1.08-.24Z"/><path d="M241.37,464.55a3.64,3.64,0,0,1-1.78.4,3,3,0,0,1-3-3.12,3.66,3.66,0,0,1,3.65-3.84,2.78,2.78,0,0,1,2.91,2.89c0,1.5-.84,2.38-1.78,2.38a.74.74,0,0,1-.74-.88h0a1.57,1.57,0,0,1-1.41.88,1.13,1.13,0,0,1-1.08-1.26,2.36,2.36,0,0,1,2.37-2.37,2.63,2.63,0,0,1,1.07.21l-.34,1.81c-.15.76,0,1.11.3,1.12.51,0,1.08-.67,1.08-1.83a2.29,2.29,0,0,0-2.42-2.49,3.07,3.07,0,0,0-3,3.32,2.5,2.5,0,0,0,2.57,2.7,3.12,3.12,0,0,0,1.51-.35Zm-.55-4.32a1.62,1.62,0,0,0-2.09,1.73c0,.44.22.76.66.76s1.11-.74,1.22-1.36Z"/><path d="M248.4,459.08c0,.35,0,.74,0,1.33v2.81a2.78,2.78,0,0,1-.69,2.21,2.56,2.56,0,0,1-1.76.58,3.12,3.12,0,0,1-1.61-.4l.22-.67a2.72,2.72,0,0,0,1.42.38c.9,0,1.56-.47,1.56-1.69v-.54h0a1.73,1.73,0,0,1-1.54.81,2.16,2.16,0,0,1-2.06-2.36,2.32,2.32,0,0,1,2.18-2.57,1.61,1.61,0,0,1,1.51.84h0l0-.73Zm-.91,1.91a1.25,1.25,0,0,0,0-.4,1.27,1.27,0,0,0-1.23-.93c-.84,0-1.44.71-1.44,1.83,0,.95.48,1.74,1.43,1.74a1.29,1.29,0,0,0,1.22-.9,1.54,1.54,0,0,0,.07-.47Z"/><path d="M249.76,460.39c0-.5,0-.91,0-1.31h.77l0,.78h0a1.67,1.67,0,0,1,1.52-.89,1.43,1.43,0,0,1,1.37,1h0a2,2,0,0,1,.54-.63,1.65,1.65,0,0,1,1.07-.34c.64,0,1.59.42,1.59,2.1v2.85h-.86v-2.74c0-.93-.34-1.49-1-1.49a1.14,1.14,0,0,0-1,.8,1.44,1.44,0,0,0-.07.44v3h-.86V461c0-.77-.34-1.33-1-1.33a1.31,1.31,0,0,0-1.16,1.31v2.92h-.86Z"/><path d="M260.78,463.91l-.07-.61h0a1.8,1.8,0,0,1-1.48.72,1.38,1.38,0,0,1-1.48-1.39c0-1.17,1-1.81,2.91-1.8v-.1a1,1,0,0,0-1.1-1.12,2.4,2.4,0,0,0-1.26.36l-.2-.58a3,3,0,0,1,1.59-.43c1.48,0,1.84,1,1.84,2v1.81a6.85,6.85,0,0,0,.08,1.16Zm-.13-2.47c-1,0-2,.15-2,1.09a.78.78,0,0,0,.83.84,1.2,1.2,0,0,0,1.17-.81.91.91,0,0,0,.05-.28Z"/><path d="M263.9,457.72a.54.54,0,0,1-1.09,0,.54.54,0,0,1,.55-.55A.52.52,0,0,1,263.9,457.72Zm-1,6.2v-4.84h.88v4.84Z"/><path d="M265.26,456.82h.88v7.1h-.88Z"/><path d="M267.31,463.39a.59.59,0,0,1,.6-.63.63.63,0,0,1,0,1.26A.59.59,0,0,1,267.31,463.39Z"/><path d="M273,463.73a3.24,3.24,0,0,1-1.39.28,2.3,2.3,0,0,1-2.41-2.47,2.46,2.46,0,0,1,2.6-2.57,2.94,2.94,0,0,1,1.22.25l-.2.68a2,2,0,0,0-1-.23,1.82,1.82,0,0,0,0,3.64,2.49,2.49,0,0,0,1.08-.24Z"/><path d="M278.39,461.46A2.37,2.37,0,0,1,276,464a2.3,2.3,0,0,1-2.32-2.49,2.36,2.36,0,0,1,2.4-2.57A2.29,2.29,0,0,1,278.39,461.46Zm-3.84.05c0,1.06.61,1.86,1.47,1.86s1.47-.79,1.47-1.88c0-.82-.41-1.86-1.45-1.86S274.55,460.59,274.55,461.51Z"/><path d="M279.5,460.39c0-.5,0-.91,0-1.31h.77l0,.78h0a1.67,1.67,0,0,1,1.52-.89,1.43,1.43,0,0,1,1.37,1h0a2,2,0,0,1,.54-.63,1.65,1.65,0,0,1,1.07-.34c.64,0,1.59.42,1.59,2.1v2.85h-.86v-2.74c0-.93-.34-1.49-1-1.49a1.14,1.14,0,0,0-1,.8,1.44,1.44,0,0,0-.07.44v3h-.86V461c0-.77-.34-1.33-1-1.33a1.31,1.31,0,0,0-1.16,1.31v2.92h-.86Z"/><path d="M408.75,463.69A4.31,4.31,0,0,1,407,464a3.15,3.15,0,0,1-3.33-3.41,3.35,3.35,0,0,1,3.52-3.54,3.62,3.62,0,0,1,1.6.3l-.21.71a3.16,3.16,0,0,0-1.36-.28,2.5,2.5,0,0,0-2.63,2.78,2.45,2.45,0,0,0,2.59,2.71,3.48,3.48,0,0,0,1.42-.28Z"/><path d="M410.72,457.18v6.74h-.87v-6.74Z"/><path d="M414.25,460.89v.65h-2.47v-.65Z"/><path d="M415,463.91v-.54l.69-.67c1.66-1.58,2.41-2.42,2.42-3.4a1.16,1.16,0,0,0-1.29-1.27,2.21,2.21,0,0,0-1.38.55l-.28-.62a2.85,2.85,0,0,1,1.84-.66,1.83,1.83,0,0,1,2,1.89c0,1.2-.87,2.17-2.24,3.49l-.52.48v0h2.92v.73Z"/><path d="M422.85,463.91v-1.77h-3v-.58l2.9-4.15h.95v4h.91v.69h-.91v1.77Zm0-2.46v-2.17q0-.51,0-1h0c-.2.38-.36.66-.54,1l-1.59,2.21v0Z"/><path d="M427.17,458.24h0l-1.13.61-.17-.67,1.42-.76H428v6.5h-.85Z"/><path d="M430.6,462.9a2.94,2.94,0,0,0,1.44.41c1.13,0,1.48-.72,1.47-1.26,0-.91-.83-1.3-1.68-1.3h-.49v-.66h.49c.64,0,1.45-.33,1.45-1.1,0-.52-.33-1-1.14-1a2.38,2.38,0,0,0-1.3.43l-.23-.64a3.09,3.09,0,0,1,1.7-.5c1.28,0,1.86.76,1.86,1.55a1.61,1.61,0,0,1-1.2,1.53v0a1.69,1.69,0,0,1,1.45,1.67c0,1-.81,1.95-2.37,1.95a3.3,3.3,0,0,1-1.69-.44Z"/><path d="M552.87,457.18v4c0,1.51.67,2.15,1.57,2.15s1.64-.66,1.64-2.15v-4H557v3.93c0,2.07-1.09,2.92-2.55,2.92s-2.42-.79-2.42-2.88v-4Z"/><path d="M563.18,463.69a4.31,4.31,0,0,1-1.78.32,3.15,3.15,0,0,1-3.33-3.41,3.35,3.35,0,0,1,3.52-3.54,3.62,3.62,0,0,1,1.6.3l-.21.71a3.17,3.17,0,0,0-1.36-.28,2.5,2.5,0,0,0-2.63,2.78,2.45,2.45,0,0,0,2.59,2.71A3.48,3.48,0,0,0,563,463Z"/><path d="M564.27,457.27a9.06,9.06,0,0,1,1.67-.14,2.76,2.76,0,0,1,1.95.55,1.68,1.68,0,0,1,.53,1.28,1.77,1.77,0,0,1-1.27,1.72v0a1.68,1.68,0,0,1,1,1.36,10.64,10.64,0,0,0,.52,1.85h-.9a8.71,8.71,0,0,1-.45-1.61c-.2-.93-.56-1.28-1.35-1.31h-.82v2.92h-.87Zm.87,3.07H566c.93,0,1.52-.51,1.52-1.28s-.63-1.25-1.55-1.26a3.64,3.64,0,0,0-.86.08Z"/><path d="M690,459.08c0,.35,0,.74,0,1.33v2.81a2.78,2.78,0,0,1-.69,2.21,2.56,2.56,0,0,1-1.76.58,3.12,3.12,0,0,1-1.61-.4l.22-.67a2.72,2.72,0,0,0,1.42.38c.9,0,1.56-.47,1.56-1.69v-.54h0a1.73,1.73,0,0,1-1.54.81,2.16,2.16,0,0,1-2.06-2.36,2.32,2.32,0,0,1,2.18-2.57,1.61,1.61,0,0,1,1.51.84h0l0-.73Zm-.91,1.91a1.25,1.25,0,0,0-.05-.4,1.27,1.27,0,0,0-1.23-.93c-.84,0-1.44.71-1.44,1.83,0,.95.48,1.74,1.43,1.74a1.29,1.29,0,0,0,1.22-.9,1.54,1.54,0,0,0,.07-.47Z"/><path d="M692.31,457.72a.54.54,0,0,1-1.09,0,.54.54,0,0,1,.55-.55A.52.52,0,0,1,692.31,457.72Zm-1,6.2v-4.84h.88v4.84Z"/><path d="M694.73,457.69v1.39H696v.67h-1.26v2.61c0,.6.17.94.66.94a1.94,1.94,0,0,0,.51-.06l0,.66a2.17,2.17,0,0,1-.78.12,1.22,1.22,0,0,1-.95-.37,1.79,1.79,0,0,1-.34-1.26v-2.64h-.75v-.67h.75v-1.16Z"/><path d="M697,456.82h.88v3h0a1.63,1.63,0,0,1,.63-.62,1.8,1.8,0,0,1,.9-.25c.65,0,1.69.4,1.69,2.07v2.88h-.88v-2.78c0-.78-.29-1.44-1.12-1.44a1.26,1.26,0,0,0-1.18.88,1.07,1.07,0,0,0-.06.42v2.92H697Z"/><path d="M706.58,462.59c0,.5,0,.94,0,1.32h-.78l0-.79h0a1.82,1.82,0,0,1-1.6.9c-.76,0-1.67-.42-1.67-2.12v-2.83h.88v2.68c0,.92.28,1.54,1.08,1.54a1.27,1.27,0,0,0,1.16-.8,1.29,1.29,0,0,0,.08-.45v-3h.88Z"/><path d="M708,463.91c0-.33,0-.82,0-1.25v-5.85h.87v3h0a1.8,1.8,0,0,1,1.65-.89,2.17,2.17,0,0,1,2,2.47,2.3,2.3,0,0,1-2.17,2.59,1.72,1.72,0,0,1-1.62-.91h0l0,.8Zm.91-1.94a1.68,1.68,0,0,0,0,.32,1.36,1.36,0,0,0,1.32,1c.92,0,1.47-.75,1.47-1.86s-.5-1.8-1.44-1.8a1.4,1.4,0,0,0-1.34,1.08,1.7,1.7,0,0,0,0,.36Z"/><path d="M713.28,463.39a.59.59,0,0,1,.6-.63.63.63,0,0,1,0,1.26A.59.59,0,0,1,713.28,463.39Z"/><path d="M719,463.73a3.24,3.24,0,0,1-1.39.28,2.3,2.3,0,0,1-2.41-2.47,2.46,2.46,0,0,1,2.6-2.57,2.93,2.93,0,0,1,1.22.25l-.2.68a2,2,0,0,0-1-.23,1.82,1.82,0,0,0,0,3.64,2.49,2.49,0,0,0,1.08-.24Z"/><path d="M724.36,461.46a2.36,2.36,0,0,1-2.41,2.57,2.3,2.3,0,0,1-2.32-2.49A2.36,2.36,0,0,1,722,459,2.29,2.29,0,0,1,724.36,461.46Zm-3.84.05c0,1.06.61,1.86,1.47,1.86s1.47-.79,1.47-1.88c0-.82-.41-1.86-1.45-1.86S720.52,460.59,720.52,461.51Z"/><path d="M725.47,460.39c0-.5,0-.91,0-1.31h.77l0,.78h0a1.67,1.67,0,0,1,1.52-.89,1.43,1.43,0,0,1,1.37,1h0a2,2,0,0,1,.54-.63,1.65,1.65,0,0,1,1.07-.34c.64,0,1.59.42,1.59,2.1v2.85h-.86v-2.74c0-.93-.34-1.49-1-1.49a1.14,1.14,0,0,0-1,.8,1.44,1.44,0,0,0-.07.44v3h-.86V461c0-.77-.34-1.33-1-1.33a1.2,1.2,0,0,0-1.09.88,1.22,1.22,0,0,0-.07.43v2.92h-.86Z"/><path d="M733.07,464.31l2.79-7.25h.68l-2.8,7.25Z"/><path d="M736.06,465.31a1.42,1.42,0,0,0,1-.37c.24-.28.33-.66.33-1.82v-4h.88v4.39a2.65,2.65,0,0,1-.58,2,2.23,2.23,0,0,1-1.5.55Zm2.27-7.6a.52.52,0,0,1-.55.54.53.53,0,0,1-.54-.54.54.54,0,0,1,.56-.55A.52.52,0,0,1,738.33,457.72Z"/><path d="M743.71,462.59c0,.5,0,.94,0,1.32H743l0-.79h0a1.82,1.82,0,0,1-1.6.9c-.76,0-1.67-.42-1.67-2.12v-2.83h.88v2.68c0,.92.28,1.54,1.08,1.54a1.27,1.27,0,0,0,1.16-.8,1.29,1.29,0,0,0,.08-.45v-3h.88Z"/><path d="M745.18,456.82h.88v7.1h-.88Z"/><path d="M748.52,457.72a.54.54,0,0,1-1.09,0,.54.54,0,0,1,.55-.55A.52.52,0,0,1,748.52,457.72Zm-1,6.2v-4.84h.88v4.84Z"/><path d="M754.25,461.46a2.36,2.36,0,0,1-2.41,2.57,2.3,2.3,0,0,1-2.32-2.49,2.36,2.36,0,0,1,2.4-2.57A2.29,2.29,0,0,1,754.25,461.46Zm-3.84.05c0,1.06.61,1.86,1.47,1.86s1.47-.79,1.47-1.88c0-.82-.41-1.86-1.45-1.86S750.42,460.59,750.42,461.51Z"/><path d="M758,463.91l-.07-.61h0a1.8,1.8,0,0,1-1.48.72,1.38,1.38,0,0,1-1.48-1.39c0-1.17,1-1.81,2.91-1.8v-.1a1,1,0,0,0-1.1-1.12,2.4,2.4,0,0,0-1.26.36l-.2-.58a3,3,0,0,1,1.59-.43c1.48,0,1.84,1,1.84,2v1.81a6.75,6.75,0,0,0,.08,1.16Zm-.13-2.47c-1,0-2,.15-2,1.09a.78.78,0,0,0,.83.84,1.2,1.2,0,0,0,1.17-.81.94.94,0,0,0,0-.28Z"/><path d="M760.19,460.39c0-.5,0-.91,0-1.31h.78l.05.8h0a1.78,1.78,0,0,1,1.6-.91c.67,0,1.71.4,1.71,2.06v2.89h-.88v-2.79c0-.78-.29-1.43-1.12-1.43a1.25,1.25,0,0,0-1.18.9,1.27,1.27,0,0,0-.06.41v2.91h-.88Z"/><path d="M769.91,456.82v5.85c0,.43,0,.92,0,1.25h-.79l0-.84h0a1.79,1.79,0,0,1-1.65,1,2.21,2.21,0,0,1-2.07-2.46,2.31,2.31,0,0,1,2.17-2.6,1.62,1.62,0,0,1,1.46.74h0v-2.89ZM769,461a1.59,1.59,0,0,0,0-.37,1.3,1.3,0,0,0-1.27-1c-.91,0-1.45.8-1.45,1.87s.48,1.79,1.43,1.79a1.32,1.32,0,0,0,1.29-1,1.55,1.55,0,0,0,0-.38Z"/><path d="M771.38,460.59c0-.57,0-1.06,0-1.51h.77l0,.95h0a1.45,1.45,0,0,1,1.34-1.06.93.93,0,0,1,.25,0v.83a1.34,1.34,0,0,0-.3,0,1.23,1.23,0,0,0-1.18,1.13,2.53,2.53,0,0,0,0,.41v2.58h-.87Z"/><path d="M775,461.66a1.55,1.55,0,0,0,1.66,1.68,3.19,3.19,0,0,0,1.34-.25l.15.63a3.9,3.9,0,0,1-1.61.3,2.25,2.25,0,0,1-2.38-2.44,2.35,2.35,0,0,1,2.27-2.61,2,2,0,0,1,2,2.28,3.16,3.16,0,0,1,0,.41Zm2.58-.63a1.25,1.25,0,0,0-1.22-1.43A1.46,1.46,0,0,0,775,461Z"/><path d="M779.44,463a2.3,2.3,0,0,0,1.16.35c.64,0,.94-.32.94-.72s-.25-.65-.9-.89c-.87-.31-1.28-.79-1.28-1.37A1.49,1.49,0,0,1,781,459a2.41,2.41,0,0,1,1.19.3l-.22.64a1.88,1.88,0,0,0-1-.28c-.52,0-.81.3-.81.66s.29.58.92.82c.84.32,1.27.74,1.27,1.46s-.66,1.45-1.81,1.45a2.77,2.77,0,0,1-1.36-.33Z"/><path d="M783.24,463.91v-.54l.69-.67c1.66-1.58,2.41-2.42,2.42-3.4a1.16,1.16,0,0,0-1.29-1.27,2.21,2.21,0,0,0-1.38.55l-.28-.62a2.85,2.85,0,0,1,1.84-.66,1.83,1.83,0,0,1,2,1.89c0,1.2-.87,2.17-2.24,3.49l-.52.48v0h2.92v.73Z"/><path d="M792.07,458a3.19,3.19,0,0,0-.66,0,2.64,2.64,0,0,0-2.26,2.31h0a2,2,0,0,1,3.53,1.35,2.17,2.17,0,0,1-2.16,2.29c-1.39,0-2.3-1.08-2.3-2.77a4.09,4.09,0,0,1,1.1-2.93,3.54,3.54,0,0,1,2.08-1,4.34,4.34,0,0,1,.64,0Zm-.25,3.75a1.32,1.32,0,0,0-1.34-1.49,1.45,1.45,0,0,0-1.26.8.74.74,0,0,0-.1.39c0,1.07.51,1.86,1.43,1.86C791.31,463.34,791.82,462.71,791.82,461.79Z"/><rect x="177" y="438.44" width="616.01" height="1"/><rect x="177" y="113.18" width="616.01" height="1"/><path d="M182.52,132.18a2.17,2.17,0,0,0,2.33,2.35,4.46,4.46,0,0,0,1.88-.35l.21.88a5.48,5.48,0,0,1-2.25.42,3.15,3.15,0,0,1-3.33-3.42c0-2,1.2-3.66,3.18-3.66,2.21,0,2.8,1.95,2.8,3.19a4.73,4.73,0,0,1,0,.57Zm3.61-.88a1.75,1.75,0,0,0-1.71-2,2,2,0,0,0-1.89,2Z"/><path d="M187.19,137.3a2,2,0,0,0,1.34-.52c.34-.39.46-.92.46-2.55v-5.67h1.23v6.15a3.72,3.72,0,0,1-.81,2.79,3.13,3.13,0,0,1-2.1.77Zm3.18-10.65a.72.72,0,0,1-.77.76.74.74,0,0,1-.76-.76.75.75,0,0,1,.78-.77A.73.73,0,0,1,190.37,126.66Z"/><path d="M192.94,132.18a2.17,2.17,0,0,0,2.33,2.35,4.46,4.46,0,0,0,1.88-.35l.21.88a5.48,5.48,0,0,1-2.25.42,3.15,3.15,0,0,1-3.33-3.42c0-2,1.2-3.66,3.18-3.66,2.21,0,2.8,1.95,2.8,3.19a4.73,4.73,0,0,1,0,.57Zm3.61-.88a1.75,1.75,0,0,0-1.71-2,2,2,0,0,0-1.89,2Z"/><path d="M199.26,130.68c0-.8,0-1.48-.06-2.12h1.08l0,1.33h.06a2,2,0,0,1,1.88-1.48,1.32,1.32,0,0,1,.35,0v1.16a1.83,1.83,0,0,0-.42,0,1.73,1.73,0,0,0-1.65,1.58,3.44,3.44,0,0,0-.06.57v3.61h-1.22Z"/><path d="M208.53,135.09a4.54,4.54,0,0,1-1.95.39,3.22,3.22,0,0,1-3.38-3.46,3.44,3.44,0,0,1,3.64-3.6,4.11,4.11,0,0,1,1.71.35l-.28,1a2.86,2.86,0,0,0-1.43-.32,2.56,2.56,0,0,0,0,5.1,3.5,3.5,0,0,0,1.51-.34Z"/><path d="M211.35,126.66a.76.76,0,0,1-1.53,0,.75.75,0,0,1,.77-.77A.73.73,0,0,1,211.35,126.66ZM210,135.34v-6.78h1.23v6.78Z"/><path d="M218.08,135.09a4.54,4.54,0,0,1-1.95.39,3.22,3.22,0,0,1-3.38-3.46,3.44,3.44,0,0,1,3.64-3.6,4.11,4.11,0,0,1,1.71.35l-.28,1a2.86,2.86,0,0,0-1.43-.32,2.56,2.56,0,0,0,0,5.1,3.5,3.5,0,0,0,1.51-.34Z"/><path d="M220.89,126.66a.76.76,0,0,1-1.53,0,.75.75,0,0,1,.77-.77A.73.73,0,0,1,220.89,126.66Zm-1.37,8.68v-6.78h1.23v6.78Z"/><path d="M228.93,131.9a3.31,3.31,0,0,1-3.38,3.6,3.22,3.22,0,0,1-3.25-3.49,3.31,3.31,0,0,1,3.36-3.6A3.21,3.21,0,0,1,228.93,131.9Zm-5.38.07c0,1.48.85,2.61,2.06,2.61s2.06-1.11,2.06-2.63c0-1.15-.57-2.61-2-2.61S223.55,130.68,223.55,132Z"/><path d="M235.73,127.38h0l-1.58.85-.24-.94,2-1.06h1.05v9.1h-1.19Z"/><path d="M240.34,134.61a.83.83,0,0,1,.84-.88.88.88,0,1,1-.84.88Z"/><path d="M245.81,127.38h0l-1.58.85-.24-.94,2-1.06H247v9.1h-1.19Z"/><path d="M182.52,165.78a2.17,2.17,0,0,0,2.33,2.35,4.46,4.46,0,0,0,1.88-.35l.21.88a5.48,5.48,0,0,1-2.25.42,3.15,3.15,0,0,1-3.33-3.42c0-2,1.2-3.66,3.18-3.66,2.21,0,2.8,1.95,2.8,3.19a4.73,4.73,0,0,1,0,.57Zm3.61-.88a1.75,1.75,0,0,0-1.71-2,2,2,0,0,0-1.89,2Z"/><path d="M187.19,170.9a2,2,0,0,0,1.34-.52c.34-.39.46-.92.46-2.55v-5.67h1.23v6.15a3.72,3.72,0,0,1-.81,2.79,3.13,3.13,0,0,1-2.1.77Zm3.18-10.65a.72.72,0,0,1-.77.76.74.74,0,0,1-.76-.76.75.75,0,0,1,.78-.77A.73.73,0,0,1,190.37,160.26Z"/><path d="M192.94,165.78a2.17,2.17,0,0,0,2.33,2.35,4.46,4.46,0,0,0,1.88-.35l.21.88a5.48,5.48,0,0,1-2.25.42,3.15,3.15,0,0,1-3.33-3.42c0-2,1.2-3.66,3.18-3.66,2.21,0,2.8,1.95,2.8,3.19a4.73,4.73,0,0,1,0,.57Zm3.61-.88a1.75,1.75,0,0,0-1.71-2,2,2,0,0,0-1.89,2Z"/><path d="M199.26,164.28c0-.8,0-1.48-.06-2.12h1.08l0,1.33h.06a2,2,0,0,1,1.88-1.48,1.32,1.32,0,0,1,.35,0v1.16a1.83,1.83,0,0,0-.42,0,1.73,1.73,0,0,0-1.65,1.58,3.44,3.44,0,0,0-.06.57v3.61h-1.22Z"/><path d="M208.53,168.69a4.54,4.54,0,0,1-1.95.39,3.22,3.22,0,0,1-3.38-3.46,3.44,3.44,0,0,1,3.64-3.6,4.11,4.11,0,0,1,1.71.35l-.28,1a2.86,2.86,0,0,0-1.43-.32,2.56,2.56,0,0,0,0,5.1,3.5,3.5,0,0,0,1.51-.34Z"/><path d="M211.35,160.26a.76.76,0,0,1-1.53,0,.75.75,0,0,1,.77-.77A.73.73,0,0,1,211.35,160.26ZM210,168.94v-6.78h1.23v6.78Z"/><path d="M218.08,168.69a4.54,4.54,0,0,1-1.95.39,3.22,3.22,0,0,1-3.38-3.46,3.44,3.44,0,0,1,3.64-3.6,4.11,4.11,0,0,1,1.71.35l-.28,1a2.86,2.86,0,0,0-1.43-.32,2.56,2.56,0,0,0,0,5.1,3.5,3.5,0,0,0,1.51-.34Z"/><path d="M220.89,160.26a.76.76,0,0,1-1.53,0,.75.75,0,0,1,.77-.77A.73.73,0,0,1,220.89,160.26Zm-1.37,8.68v-6.78h1.23v6.78Z"/><path d="M228.93,165.5a3.31,3.31,0,0,1-3.38,3.6,3.22,3.22,0,0,1-3.25-3.49,3.31,3.31,0,0,1,3.36-3.6A3.21,3.21,0,0,1,228.93,165.5Zm-5.38.07c0,1.48.85,2.61,2.06,2.61s2.06-1.11,2.06-2.63c0-1.15-.57-2.61-2-2.61S223.55,164.28,223.55,165.57Z"/><path d="M235.73,161h0l-1.58.85-.24-.94,2-1.06h1.05v9.1h-1.19Z"/><path d="M240.34,168.21a.83.83,0,0,1,.84-.88.88.88,0,1,1-.84.88Z"/><path d="M243.14,168.94v-.76l1-.94c2.33-2.21,3.38-3.39,3.39-4.76a1.62,1.62,0,0,0-1.81-1.78,3.1,3.1,0,0,0-1.93.77l-.39-.87a4,4,0,0,1,2.58-.92,2.56,2.56,0,0,1,2.79,2.65c0,1.68-1.22,3-3.14,4.89l-.73.67v0H249v1Z"/><path d="M182.52,199.38a2.17,2.17,0,0,0,2.33,2.35,4.46,4.46,0,0,0,1.88-.35l.21.88a5.48,5.48,0,0,1-2.25.42,3.15,3.15,0,0,1-3.33-3.42c0-2,1.2-3.66,3.18-3.66,2.21,0,2.8,1.95,2.8,3.19a4.73,4.73,0,0,1,0,.57Zm3.61-.88a1.75,1.75,0,0,0-1.71-2,2,2,0,0,0-1.89,2Z"/><path d="M187.19,204.5a2,2,0,0,0,1.34-.52c.34-.39.46-.92.46-2.55v-5.67h1.23v6.15a3.72,3.72,0,0,1-.81,2.79,3.13,3.13,0,0,1-2.1.77Zm3.18-10.65a.72.72,0,0,1-.77.76.74.74,0,0,1-.76-.76.75.75,0,0,1,.78-.77A.73.73,0,0,1,190.37,193.86Z"/><path d="M192.94,199.38a2.17,2.17,0,0,0,2.33,2.35,4.46,4.46,0,0,0,1.88-.35l.21.88a5.48,5.48,0,0,1-2.25.42,3.15,3.15,0,0,1-3.33-3.42c0-2,1.2-3.66,3.18-3.66,2.21,0,2.8,1.95,2.8,3.19a4.73,4.73,0,0,1,0,.57Zm3.61-.88a1.75,1.75,0,0,0-1.71-2,2,2,0,0,0-1.89,2Z"/><path d="M199.26,197.88c0-.8,0-1.48-.06-2.12h1.08l0,1.33h.06a2,2,0,0,1,1.88-1.48,1.32,1.32,0,0,1,.35,0v1.16a1.83,1.83,0,0,0-.42,0,1.73,1.73,0,0,0-1.65,1.58,3.44,3.44,0,0,0-.06.57v3.61h-1.22Z"/><path d="M208.53,202.29a4.54,4.54,0,0,1-1.95.39,3.22,3.22,0,0,1-3.38-3.46,3.44,3.44,0,0,1,3.64-3.6,4.11,4.11,0,0,1,1.71.35l-.28,1a2.86,2.86,0,0,0-1.43-.32,2.56,2.56,0,0,0,0,5.1,3.5,3.5,0,0,0,1.51-.34Z"/><path d="M211.35,193.86a.76.76,0,0,1-1.53,0,.75.75,0,0,1,.77-.77A.73.73,0,0,1,211.35,193.86ZM210,202.54v-6.78h1.23v6.78Z"/><path d="M218.08,202.29a4.54,4.54,0,0,1-1.95.39,3.22,3.22,0,0,1-3.38-3.46,3.44,3.44,0,0,1,3.64-3.6,4.11,4.11,0,0,1,1.71.35l-.28,1a2.86,2.86,0,0,0-1.43-.32,2.56,2.56,0,0,0,0,5.1,3.5,3.5,0,0,0,1.51-.34Z"/><path d="M220.89,193.86a.76.76,0,0,1-1.53,0,.75.75,0,0,1,.77-.77A.73.73,0,0,1,220.89,193.86Zm-1.37,8.68v-6.78h1.23v6.78Z"/><path d="M228.93,199.1a3.31,3.31,0,0,1-3.38,3.6,3.22,3.22,0,0,1-3.25-3.49,3.31,3.31,0,0,1,3.36-3.6A3.21,3.21,0,0,1,228.93,199.1Zm-5.38.07c0,1.48.85,2.61,2.06,2.61s2.06-1.11,2.06-2.63c0-1.15-.57-2.61-2-2.61S223.55,197.88,223.55,199.17Z"/><path d="M235.73,194.58h0l-1.58.85-.24-.94,2-1.06h1.05v9.1h-1.19Z"/><path d="M240.34,201.81a.83.83,0,0,1,.84-.88.88.88,0,1,1-.84.88Z"/><path d="M243.43,201.13a4.12,4.12,0,0,0,2,.57c1.58,0,2.07-1,2.06-1.77,0-1.27-1.16-1.82-2.35-1.82h-.69v-.92h.69c.9,0,2-.46,2-1.54,0-.73-.46-1.37-1.6-1.37a3.34,3.34,0,0,0-1.82.6l-.32-.9a4.33,4.33,0,0,1,2.38-.7c1.79,0,2.61,1.06,2.61,2.17a2.26,2.26,0,0,1-1.68,2.14v0a2.37,2.37,0,0,1,2,2.34c0,1.46-1.13,2.73-3.32,2.73a4.63,4.63,0,0,1-2.37-.62Z"/><path d="M182.52,233a2.17,2.17,0,0,0,2.33,2.35,4.46,4.46,0,0,0,1.88-.35l.21.88a5.48,5.48,0,0,1-2.25.42,3.15,3.15,0,0,1-3.33-3.42c0-2,1.2-3.66,3.18-3.66,2.21,0,2.8,1.95,2.8,3.19a4.73,4.73,0,0,1,0,.57Zm3.61-.88a1.75,1.75,0,0,0-1.71-2,2,2,0,0,0-1.89,2Z"/><path d="M187.19,238.1a2,2,0,0,0,1.34-.52c.34-.39.46-.92.46-2.55v-5.67h1.23v6.15a3.72,3.72,0,0,1-.81,2.79,3.13,3.13,0,0,1-2.1.77Zm3.18-10.65a.72.72,0,0,1-.77.76.74.74,0,0,1-.76-.76.75.75,0,0,1,.78-.77A.73.73,0,0,1,190.37,227.46Z"/><path d="M192.94,233a2.17,2.17,0,0,0,2.33,2.35,4.46,4.46,0,0,0,1.88-.35l.21.88a5.48,5.48,0,0,1-2.25.42,3.15,3.15,0,0,1-3.33-3.42c0-2,1.2-3.66,3.18-3.66,2.21,0,2.8,1.95,2.8,3.19a4.73,4.73,0,0,1,0,.57Zm3.61-.88a1.75,1.75,0,0,0-1.71-2,2,2,0,0,0-1.89,2Z"/><path d="M199.26,231.48c0-.8,0-1.48-.06-2.12h1.08l0,1.33h.06a2,2,0,0,1,1.88-1.48,1.32,1.32,0,0,1,.35,0v1.16a1.83,1.83,0,0,0-.42,0,1.73,1.73,0,0,0-1.65,1.58,3.44,3.44,0,0,0-.06.57v3.61h-1.22Z"/><path d="M208.53,235.89a4.54,4.54,0,0,1-1.95.39,3.22,3.22,0,0,1-3.38-3.46,3.44,3.44,0,0,1,3.64-3.6,4.11,4.11,0,0,1,1.71.35l-.28,1a2.86,2.86,0,0,0-1.43-.32,2.56,2.56,0,0,0,0,5.1,3.5,3.5,0,0,0,1.51-.34Z"/><path d="M211.35,227.46a.76.76,0,0,1-1.53,0,.75.75,0,0,1,.77-.77A.73.73,0,0,1,211.35,227.46ZM210,236.14v-6.78h1.23v6.78Z"/><path d="M218.08,235.89a4.54,4.54,0,0,1-1.95.39,3.22,3.22,0,0,1-3.38-3.46,3.44,3.44,0,0,1,3.64-3.6,4.11,4.11,0,0,1,1.71.35l-.28,1a2.86,2.86,0,0,0-1.43-.32,2.56,2.56,0,0,0,0,5.1,3.5,3.5,0,0,0,1.51-.34Z"/><path d="M220.89,227.46a.76.76,0,0,1-1.53,0,.75.75,0,0,1,.77-.77A.73.73,0,0,1,220.89,227.46Zm-1.37,8.68v-6.78h1.23v6.78Z"/><path d="M228.93,232.7a3.31,3.31,0,0,1-3.38,3.6,3.22,3.22,0,0,1-3.25-3.49,3.31,3.31,0,0,1,3.36-3.6A3.21,3.21,0,0,1,228.93,232.7Zm-5.38.07c0,1.48.85,2.61,2.06,2.61s2.06-1.11,2.06-2.63c0-1.15-.57-2.61-2-2.61S223.55,231.48,223.55,232.77Z"/><path d="M235.73,228.18h0l-1.58.85-.24-.94,2-1.06h1.05v9.1h-1.19Z"/><path d="M240.34,235.41a.83.83,0,0,1,.84-.88.88.88,0,1,1-.84.88Z"/><path d="M246.95,236.14v-2.48h-4.23v-.81l4.06-5.81h1.33v5.66h1.27v1h-1.27v2.48Zm0-3.45v-3q0-.71,0-1.43h0c-.28.53-.5.92-.76,1.34l-2.23,3.1v0Z"/><path d="M182.52,266.58a2.17,2.17,0,0,0,2.33,2.35,4.46,4.46,0,0,0,1.88-.35l.21.88a5.48,5.48,0,0,1-2.25.42,3.15,3.15,0,0,1-3.33-3.42c0-2,1.2-3.66,3.18-3.66,2.21,0,2.8,1.95,2.8,3.19a4.73,4.73,0,0,1,0,.57Zm3.61-.88a1.75,1.75,0,0,0-1.71-2,2,2,0,0,0-1.89,2Z"/><path d="M187.19,271.7a2,2,0,0,0,1.34-.52c.34-.39.46-.92.46-2.55V263h1.23v6.15a3.72,3.72,0,0,1-.81,2.79,3.13,3.13,0,0,1-2.1.77Zm3.18-10.65a.72.72,0,0,1-.77.76.74.74,0,0,1-.76-.76.75.75,0,0,1,.78-.77A.73.73,0,0,1,190.37,261.06Z"/><path d="M192.94,266.58a2.17,2.17,0,0,0,2.33,2.35,4.46,4.46,0,0,0,1.88-.35l.21.88a5.48,5.48,0,0,1-2.25.42,3.15,3.15,0,0,1-3.33-3.42c0-2,1.2-3.66,3.18-3.66,2.21,0,2.8,1.95,2.8,3.19a4.73,4.73,0,0,1,0,.57Zm3.61-.88a1.75,1.75,0,0,0-1.71-2,2,2,0,0,0-1.89,2Z"/><path d="M199.26,265.08c0-.8,0-1.48-.06-2.12h1.08l0,1.33h.06a2,2,0,0,1,1.88-1.48,1.32,1.32,0,0,1,.35,0V264a1.83,1.83,0,0,0-.42,0,1.73,1.73,0,0,0-1.65,1.58,3.44,3.44,0,0,0-.06.57v3.61h-1.22Z"/><path d="M208.53,269.49a4.54,4.54,0,0,1-1.95.39,3.22,3.22,0,0,1-3.38-3.46,3.44,3.44,0,0,1,3.64-3.6,4.11,4.11,0,0,1,1.71.35l-.28,1a2.86,2.86,0,0,0-1.43-.32,2.56,2.56,0,0,0,0,5.1,3.5,3.5,0,0,0,1.51-.34Z"/><path d="M211.35,261.06a.76.76,0,0,1-1.53,0,.75.75,0,0,1,.77-.77A.73.73,0,0,1,211.35,261.06ZM210,269.74V263h1.23v6.78Z"/><path d="M218.08,269.49a4.54,4.54,0,0,1-1.95.39,3.22,3.22,0,0,1-3.38-3.46,3.44,3.44,0,0,1,3.64-3.6,4.11,4.11,0,0,1,1.71.35l-.28,1a2.86,2.86,0,0,0-1.43-.32,2.56,2.56,0,0,0,0,5.1,3.5,3.5,0,0,0,1.51-.34Z"/><path d="M220.89,261.06a.76.76,0,0,1-1.53,0,.75.75,0,0,1,.77-.77A.73.73,0,0,1,220.89,261.06Zm-1.37,8.68V263h1.23v6.78Z"/><path d="M228.93,266.3a3.31,3.31,0,0,1-3.38,3.6,3.22,3.22,0,0,1-3.25-3.49,3.31,3.31,0,0,1,3.36-3.6A3.21,3.21,0,0,1,228.93,266.3Zm-5.38.07c0,1.48.85,2.61,2.06,2.61s2.06-1.11,2.06-2.63c0-1.15-.57-2.61-2-2.61S223.55,265.08,223.55,266.37Z"/><path d="M235.73,261.79h0l-1.58.85-.24-.94,2-1.06h1.05v9.1h-1.19Z"/><path d="M240.34,269a.83.83,0,0,1,.84-.88.88.88,0,1,1-.84.88Z"/><path d="M248.57,261.67H245.1l-.35,2.34a4.82,4.82,0,0,1,.74-.06,3.85,3.85,0,0,1,2,.49,2.6,2.6,0,0,1,1.3,2.34,3.16,3.16,0,0,1-3.39,3.11,4.45,4.45,0,0,1-2.27-.56l.31-.94a4.08,4.08,0,0,0,1.95.5,2,2,0,0,0,2.16-2c0-1.18-.8-2-2.62-2a9.42,9.42,0,0,0-1.26.1l.59-4.37h4.36Z"/><path d="M182.52,300.17a2.17,2.17,0,0,0,2.33,2.35,4.45,4.45,0,0,0,1.88-.35l.21.88a5.49,5.49,0,0,1-2.25.42,3.15,3.15,0,0,1-3.33-3.42c0-2,1.2-3.66,3.18-3.66,2.21,0,2.8,1.95,2.8,3.19a4.72,4.72,0,0,1,0,.57Zm3.61-.88a1.76,1.76,0,0,0-1.71-2,2,2,0,0,0-1.89,2Z"/><path d="M187.19,305.3a2,2,0,0,0,1.34-.52c.34-.39.46-.92.46-2.55v-5.67h1.23v6.15a3.72,3.72,0,0,1-.81,2.79,3.13,3.13,0,0,1-2.1.77Zm3.18-10.65a.72.72,0,0,1-.77.76.74.74,0,0,1-.76-.76.75.75,0,0,1,.78-.77A.73.73,0,0,1,190.37,294.66Z"/><path d="M192.94,300.17a2.17,2.17,0,0,0,2.33,2.35,4.45,4.45,0,0,0,1.88-.35l.21.88a5.49,5.49,0,0,1-2.25.42,3.15,3.15,0,0,1-3.33-3.42c0-2,1.2-3.66,3.18-3.66,2.21,0,2.8,1.95,2.8,3.19a4.72,4.72,0,0,1,0,.57Zm3.61-.88a1.76,1.76,0,0,0-1.71-2,2,2,0,0,0-1.89,2Z"/><path d="M199.26,298.68c0-.8,0-1.49-.06-2.12h1.08l0,1.33h.06a2,2,0,0,1,1.88-1.48,1.32,1.32,0,0,1,.35,0v1.16a1.89,1.89,0,0,0-.42,0,1.73,1.73,0,0,0-1.65,1.58,3.44,3.44,0,0,0-.06.57v3.61h-1.22Z"/><path d="M208.53,303.09a4.54,4.54,0,0,1-1.95.39,3.22,3.22,0,0,1-3.38-3.46,3.44,3.44,0,0,1,3.64-3.6,4.12,4.12,0,0,1,1.71.35l-.28,1a2.86,2.86,0,0,0-1.43-.32,2.56,2.56,0,0,0,0,5.1,3.5,3.5,0,0,0,1.51-.34Z"/><path d="M211.35,294.66a.76.76,0,0,1-1.53,0,.75.75,0,0,1,.77-.77A.73.73,0,0,1,211.35,294.66ZM210,303.34v-6.78h1.23v6.78Z"/><path d="M218.08,303.09a4.54,4.54,0,0,1-1.95.39,3.22,3.22,0,0,1-3.38-3.46,3.44,3.44,0,0,1,3.64-3.6,4.12,4.12,0,0,1,1.71.35l-.28,1a2.86,2.86,0,0,0-1.43-.32,2.56,2.56,0,0,0,0,5.1,3.5,3.5,0,0,0,1.51-.34Z"/><path d="M220.89,294.66a.76.76,0,0,1-1.53,0,.75.75,0,0,1,.77-.77A.73.73,0,0,1,220.89,294.66Zm-1.37,8.68v-6.78h1.23v6.78Z"/><path d="M228.93,299.89a3.31,3.31,0,0,1-3.38,3.6,3.22,3.22,0,0,1-3.25-3.49,3.31,3.31,0,0,1,3.36-3.6A3.21,3.21,0,0,1,228.93,299.89Zm-5.38.07c0,1.49.85,2.61,2.06,2.61s2.06-1.11,2.06-2.63c0-1.15-.57-2.6-2-2.6S223.55,298.68,223.55,300Z"/><path d="M235.73,295.38h0l-1.58.85-.24-.94,2-1.06h1.05v9.1h-1.19Z"/><path d="M240.34,302.61a.83.83,0,0,1,.84-.88.88.88,0,1,1-.84.88Z"/><path d="M248.33,295.1a4.5,4.5,0,0,0-.92.06,3.7,3.7,0,0,0-3.17,3.24h0a2.78,2.78,0,0,1,4.94,1.89,3,3,0,0,1-3,3.21c-1.95,0-3.22-1.51-3.22-3.88a5.73,5.73,0,0,1,1.54-4.1,5,5,0,0,1,2.91-1.34,5.85,5.85,0,0,1,.9-.07Zm-.35,5.25a1.85,1.85,0,0,0-1.88-2.09,2,2,0,0,0-1.77,1.12,1.05,1.05,0,0,0-.14.55c0,1.5.71,2.61,2,2.61C247.27,302.54,248,301.66,248,300.36Z"/><path d="M254,309.77H176.5V113.18H254Zm-76.49-1H253V114.18H177.5Z"/><rect x="177" y="97.99" width="38.25" height="1"/><path d="M402.6,288.67a15.56,15.56,0,0,1-6.67,1.34c-7,0-11.57-4.75-11.57-11.86s4.9-12.34,12.48-12.34a14.13,14.13,0,0,1,5.86,1.2l-1,3.26a9.8,9.8,0,0,0-4.9-1.1c-5.33,0-8.21,3.94-8.21,8.78,0,5.38,3.46,8.69,8.06,8.69a12,12,0,0,0,5.18-1.15Z"/><path d="M428.28,277.73c0,8.59-6,12.34-11.57,12.34-6.29,0-11.14-4.61-11.14-12,0-7.78,5.09-12.34,11.52-12.34C423.76,265.78,428.28,270.62,428.28,277.73Zm-18.43.24c0,5.09,2.93,8.93,7.06,8.93s7.06-3.79,7.06-9c0-3.94-2-8.93-7-8.93S409.84,273.55,409.84,278Z"/><path d="M433.6,272.59c0-2.4,0-4.37-.19-6.29h3.74l.24,3.84h.1a8.54,8.54,0,0,1,7.68-4.37c3.22,0,8.21,1.92,8.21,9.89v13.87h-4.22V276.15c0-3.74-1.39-6.86-5.38-6.86a6,6,0,0,0-5.66,4.32,6.08,6.08,0,0,0-.29,2v14H433.6Z"/><path d="M465.14,259.63v6.67h6v3.22h-6V282c0,2.88.82,4.51,3.17,4.51a9.42,9.42,0,0,0,2.45-.29l.19,3.17a10.35,10.35,0,0,1-3.74.58,5.85,5.85,0,0,1-4.56-1.78c-1.2-1.25-1.63-3.31-1.63-6V269.52h-3.6V266.3H461v-5.57Z"/><path d="M478,278.69c.1,5.71,3.74,8.06,8,8.06a15.28,15.28,0,0,0,6.43-1.2l.72,3a18.82,18.82,0,0,1-7.73,1.44c-7.15,0-11.43-4.71-11.43-11.71s4.13-12.53,10.9-12.53c7.58,0,9.6,6.67,9.6,10.95a16,16,0,0,1-.14,2Zm12.39-3c0-2.69-1.1-6.86-5.86-6.86-4.27,0-6.14,3.94-6.48,6.86Z"/><path d="M499.7,272.59c0-2.4,0-4.37-.19-6.29h3.74l.24,3.84h.1a8.54,8.54,0,0,1,7.68-4.37c3.22,0,8.21,1.92,8.21,9.89v13.87h-4.22V276.15c0-3.74-1.39-6.86-5.38-6.86a6,6,0,0,0-5.67,4.32,6.09,6.09,0,0,0-.29,2v14H499.7Z"/><path d="M531,259.78a2.62,2.62,0,0,1-5.23,0,2.57,2.57,0,0,1,2.64-2.64A2.51,2.51,0,0,1,531,259.78Zm-4.71,29.76V266.3h4.22v23.23Z"/><path d="M557.63,255.46v28.08c0,2.06,0,4.42.19,6H554l-.19-4h-.1a8.59,8.59,0,0,1-7.92,4.56c-5.62,0-9.94-4.75-9.94-11.81,0-7.73,4.75-12.48,10.42-12.48,3.55,0,6,1.68,7,3.55h.1V255.46Zm-4.22,20.31a7.43,7.43,0,0,0-.19-1.78,6.21,6.21,0,0,0-6.1-4.9c-4.37,0-7,3.84-7,9,0,4.7,2.3,8.59,6.86,8.59a6.35,6.35,0,0,0,6.19-5,7.31,7.31,0,0,0,.19-1.82Z"/><path d="M585.67,277.73c0,8.59-6,12.34-11.57,12.34-6.29,0-11.14-4.61-11.14-12,0-7.78,5.09-12.34,11.52-12.34C581.15,265.78,585.67,270.62,585.67,277.73Zm-18.43.24c0,5.09,2.93,8.93,7.06,8.93s7.06-3.79,7.06-9c0-3.94-2-8.93-7-8.93S567.23,273.55,567.23,278Z"/></svg>